# OBJ File Generated by UnrealEd

g LH_reference

v -2753.7039 4894.8843 2905.1584
v -2971.3506 4894.8843 3122.8052
v -2971.3506 947.2542 3122.8052
v -2753.7039 947.2542 2905.1584
v -2753.7039 4894.8843 2597.3594
v -2753.7039 4894.8843 2905.1584
v -2753.7039 947.2542 2905.1584
v -2753.7039 947.2542 2597.3594
v -2971.3506 4894.8843 2379.7126
v -2753.7039 4894.8843 2597.3594
v -2753.7039 947.2542 2597.3594
v -2971.3506 947.2542 2379.7126
v -3279.1494 4894.8843 2379.7126
v -2971.3506 4894.8843 2379.7126
v -2971.3506 947.2542 2379.7126
v -3279.1494 947.2542 2379.7126
v -5143.7256 895.2966 2255.8262
v -5203.8188 885.7164 1920.0057
v -5186.2808 775.7105 1920.0057
v -5126.1875 785.2907 2255.8262
v -4150.1323 1053.7017 2073.5088
v -5143.7256 895.2966 2255.8262
v -5126.1875 785.2907 2255.8262
v -4132.5942 943.6957 2073.5085
v -4210.2256 1044.1213 1737.6884
v -4150.1323 1053.7017 2073.5088
v -4132.5942 943.6957 2073.5085
v -4192.6875 934.1155 1737.6882
v -5203.8188 885.7164 1920.0057
v -4210.2256 1044.1213 1737.6884
v -4192.6875 934.1155 1737.6882
v -5186.2808 775.7105 1920.0057
v -4210.2256 1044.1213 1737.6884
v -5203.8188 885.7164 1920.0057
v -5143.7256 895.2966 2255.8262
v -4150.1323 1053.7017 2073.5088
v -4132.5942 943.6957 2073.5085
v -5126.1875 785.2907 2255.8262
v -5186.2808 775.7105 1920.0057
v -4192.6875 934.1155 1737.6882
v -3496.7964 4894.8843 2597.3596
v -3279.1494 4894.8843 2379.7126
v -3279.1494 947.2542 2379.7126
v -3496.7964 947.2542 2597.3596
v -4656.3452 1134.5062 3334.1172
v -4467.4644 1134.5062 3036.1855
v -4462.6055 946.9934 3038.3745
v -4651.4497 945.5787 3336.3230
v -4285.8115 1134.5062 3151.3198
v -4461.8057 1134.5062 3457.4194
v -4462.0947 1278.9634 3457.9219
v -4286.1025 1279.9500 3151.8262
v -4656.3447 1134.5062 3334.1172
v -4461.8057 1134.5062 3457.4194
v -4285.8115 1134.5062 3151.3198
v -4467.4644 1134.5062 3036.1855
v -4467.4644 1134.5062 3036.1855
v -4285.8115 1134.5062 3151.3198
v -4285.4478 952.8951 3150.6880
v -4462.6055 946.9934 3038.3745
v -4651.4497 945.5787 3336.3230
v -4461.4404 951.9086 3456.7839
v -4461.8057 1134.5062 3457.4194
v -4656.3452 1134.5062 3334.1172
v -3496.7961 4894.8843 2905.1584
v -3496.7964 4894.8843 2597.3596
v -3496.7964 947.2542 2597.3596
v -3496.7961 947.2542 2905.1584
v -3726.6628 1134.5062 3505.7168
v -3915.5437 1134.5062 3803.6484
v -3911.2871 970.2360 3805.5664
v -3722.4429 971.6506 3507.6182
v -4055.0117 1134.5062 3715.2515
v -3879.0176 1134.5062 3409.1519
v -3879.3354 1293.5006 3409.7053
v -4055.3279 1292.5142 3715.8013
v -3879.0176 1134.5062 3409.1519
v -4055.0117 1134.5062 3715.2515
v -3915.5435 1134.5062 3803.6484
v -3726.6628 1134.5062 3505.7168
v -3722.4429 971.6506 3507.6182
v -3878.6812 966.4459 3408.5674
v -3879.0176 1134.5062 3409.1521
v -3726.6628 1134.5062 3505.7168
v -3915.5437 1134.5062 3803.6484
v -4055.0117 1134.5062 3715.2515
v -4054.6733 965.4594 3714.6631
v -3911.2871 970.2360 3805.5664
v -3279.1494 4894.8843 3122.8052
v -3496.7961 4894.8843 2905.1584
v -3496.7961 947.2542 2905.1584
v -3279.1494 947.2542 3122.8052
v -2971.3506 4894.8843 3122.8052
v -3279.1494 4894.8843 3122.8052
v -3279.1494 947.2542 3122.8052
v -2971.3506 947.2542 3122.8052
v -4462.0947 1278.9634 3457.9221
v -4461.4404 951.9086 3456.7839
v -4397.0449 954.0538 3497.6086
v -4397.9956 1281.0988 3498.5591
v -4054.6733 965.4594 3714.6631
v -4055.3279 1292.5142 3715.8013
v -4286.1025 1279.9500 3151.8262
v -4462.0947 1278.9634 3457.9219
v -4397.9956 1281.0988 3498.5591
v -4142.3789 1284.7378 3242.9429
v -4055.3279 1292.5142 3715.8013
v -3879.3354 1293.5006 3409.7053
v -3879.3354 1293.5006 3409.7053
v -3878.6812 966.4459 3408.5674
v -4141.4287 957.6929 3241.9922
v -4142.3789 1284.7378 3242.9426
v -4285.4478 952.8951 3150.6880
v -4286.1025 1279.9500 3151.8259
v -2526.6458 1010.5573 1410.7469
v -2526.6458 1742.0702 1410.7469
v -2753.7039 1010.5573 2063.8350
v -2753.7039 1742.0702 2063.8350
v -2849.6465 1742.0702 2339.7949
v -2849.6465 1010.5573 2339.7949
v -2526.6458 1742.0702 1410.7469
v -2526.6458 1010.5573 1410.7469
v -2753.7039 1010.5573 1331.8062
v -2753.7039 1742.0702 1331.8062
v -3093.8955 1742.0702 1213.5322
v -3093.8955 1010.5573 1213.5322
v -3093.8955 1742.0702 1213.5322
v -3093.8955 1010.5573 1213.5322
v -3363.1301 1010.5573 1987.9330
v -3363.1301 1742.0702 1987.9329
v -3416.8962 1742.0702 2142.5801
v -3416.8962 1010.5573 2142.5801
v -2849.6465 1010.5573 2339.7949
v -2849.6465 1742.0702 2339.7949
v -3097.4065 1010.5573 2253.6567
v -3097.4065 1742.0702 2253.6567
v -3416.8962 1742.0702 2142.5801
v -3416.8962 1010.5573 2142.5801
v -4651.4497 945.5787 3336.3230
v -4462.6055 946.9934 3038.3745
v -4141.4287 957.6929 3241.9922
v -4397.0449 954.0538 3497.6089
v -3911.2871 970.2360 3805.5664
v -3722.4429 971.6506 3507.6182
v -2753.7039 1742.0702 2063.8350
v -2526.6458 1742.0702 1410.7469
v -2753.7039 1742.0702 1331.8062
v -3097.4065 1742.0702 2253.6567
v -2849.6465 1742.0702 2339.7949
v -3093.8955 1742.0702 1213.5322
v -3363.1301 1742.0702 1987.9329
v -3416.8962 1742.0702 2142.5801
v -3097.4065 1010.5573 2253.6567
v -3416.8962 1010.5573 2142.5801
v -3363.1301 1010.5573 1987.9330
v -2753.7039 1010.5573 1331.8062
v -3093.8955 1010.5573 1213.5322
v -2849.6465 1010.5573 2339.7949
v -2753.7039 1010.5573 2063.8350
v -2526.6458 1010.5573 1410.7469
v -3496.7964 4894.8843 2597.3596
v -3496.7961 4894.8843 2905.1584
v -3279.1494 4894.8843 3122.8052
v -3279.1494 4894.8843 2379.7126
v -2971.3506 4894.8843 2379.7126
v -2753.7039 4894.8843 2597.3594
v -2753.7039 4894.8843 2905.1584
v -2971.3506 4894.8843 3122.8052
v -2753.7039 947.2542 2597.3594
v -2753.7039 947.2542 2905.1584
v -2971.3503 947.2542 3122.8052
v -2971.3506 947.2542 2379.7126
v -3279.1494 947.2542 2379.7126
v -3496.7964 947.2542 2597.3596
v -3496.7961 947.2542 2905.1584
v -3279.1494 947.2542 3122.8052

vt 3.0762 79.5000
vt 0.0000 79.5000
vt 0.0000 40.0313
vt 3.0762 40.0313
vt 3.0762 79.5000
vt 0.0000 79.5000
vt 0.0000 40.0313
vt 3.0762 40.0313
vt 3.0762 79.5000
vt 0.0000 79.5000
vt 0.0000 40.0313
vt 3.0762 40.0313
vt 3.0762 79.5000
vt 0.0000 79.5000
vt 0.0000 40.0313
vt 3.0762 40.0313
vt 1.9990 2.9990
vt -0.0000 3.0000
vt 0.0000 1.0000
vt 2.0000 1.0000
vt 1.9990 3.0000
vt -0.0000 2.9990
vt 0.0000 1.0000
vt 2.0000 1.0000
vt 2.0000 3.0000
vt -0.0000 2.9990
vt -0.0000 1.0000
vt 1.9990 1.0000
vt 2.0000 2.9990
vt 0.0000 2.9990
vt 0.0000 1.0000
vt 1.9990 1.0000
vt 2.0000 3.0000
vt -0.0000 3.0000
vt 0.0000 1.0000
vt 2.0000 1.0000
vt 1.9990 2.9990
vt -0.0000 3.0000
vt 0.0000 1.0000
vt 1.9990 1.0000
vt 3.0762 79.5000
vt 0.0000 79.5000
vt 0.0000 40.0313
vt 3.0762 40.0313
vt 2.0000 2.1553
vt 0.0000 2.1475
vt 0.0000 1.0000
vt 2.0000 1.0000
vt 1.8047 1.0000
vt 0.1503 1.0000
vt 0.1476 2.4443
vt 1.8018 2.4541
vt 0.3181 2.8027
vt 1.9990 2.8496
vt 1.9990 1.1949
vt 0.4294 1.1515
vt 1.9990 2.1475
vt 1.5088 2.1104
vt 1.5205 1.0000
vt 2.0000 1.0000
vt 0.0000 1.0000
vt 0.5132 1.0000
vt 0.5249 2.1162
vt -0.0000 2.1553
vt 3.0762 79.5000
vt 0.0000 79.5000
vt 0.0000 40.0313
vt 3.0762 40.0313
vt 1.9990 1.9966
vt -0.0000 2.0049
vt 0.0000 1.0000
vt 1.9990 1.0000
vt 1.9463 1.0000
vt 0.2922 1.0000
vt 0.2954 2.5898
vt 1.9492 2.5801
vt -0.0000 1.2922
vt -0.0000 2.9463
vt 1.2051 2.9795
vt 1.3164 1.3289
vt -0.0000 1.0000
vt 0.4221 1.0000
vt 0.4111 2.0273
vt 0.0000 1.9966
vt 2.0000 2.0049
vt 1.6230 2.0332
vt 1.6123 1.0000
vt 2.0000 1.0000
vt 3.0762 79.5000
vt 0.0000 79.5000
vt 0.0000 40.0313
vt 3.0762 40.0313
vt 3.0762 79.5000
vt 0.0000 79.5000
vt 0.0000 40.0313
vt 3.0762 40.0313
vt 0.5342 2.9990
vt 0.5132 1.0000
vt 0.6870 1.0000
vt 0.7075 2.9990
vt 1.6123 1.0000
vt 1.6328 2.9990
vt 0.4998 2.9990
vt 0.5342 1.0000
vt 0.7075 1.0000
vt 0.8877 2.9990
vt 1.6328 1.0000
vt 1.5986 3.0000
vt 0.4009 2.9990
vt 0.4221 1.0000
vt 1.1318 1.0000
vt 1.1113 3.0000
vt 1.5205 1.0000
vt 1.5000 2.9990
vt 9.2813 1.0000
vt 9.2813 10.5078
vt 2.7559 1.0000
vt 2.7559 10.5078
vt 0.0000 10.5078
vt 0.0000 1.0000
vt 0.0000 10.5078
vt 0.0000 1.0000
vt 1.9512 1.0000
vt 1.9512 10.5078
vt 4.8750 10.5078
vt 4.8750 1.0000
vt 0.0000 10.5078
vt 0.0000 1.0000
vt 7.7344 1.0000
vt 7.7344 10.5078
vt 9.2813 10.5078
vt 9.2813 1.0000
vt 4.8750 1.0000
vt 4.8750 10.5078
vt 2.7461 1.0000
vt 2.7461 10.5078
vt 0.0000 10.5078
vt 0.0000 1.0000
vt 0.0000 3.0000
vt 0.0000 1.0000
vt 0.8677 1.0000
vt 0.6870 3.0000
vt 1.9990 3.0000
vt 2.0000 1.0000
vt 4.8750 3.7559
vt 4.8750 10.2813
vt 2.9238 10.2813
vt 2.7461 1.0000
vt 4.8750 1.0000
vt 0.0000 10.2813
vt 0.0000 2.5449
vt 0.0000 1.0000
vt 2.7461 10.2813
vt -0.0000 10.2813
vt -0.0000 8.7344
vt 2.9238 1.0000
vt 0.0000 1.0000
vt 4.8750 10.2813
vt 4.8750 7.5234
vt 4.8750 1.0000
vt 2.1758 6.2539
vt 0.0000 4.0762
vt 0.0000 1.0000
vt 5.2539 6.2539
vt 7.4297 4.0762
vt 7.4297 1.0000
vt 5.2539 -1.1758
vt 2.1758 -1.1758
vt 1.3330 2.1182
vt 1.3330 1.8838
vt 1.1592 1.7178
vt 1.1592 2.2842
vt 0.9150 2.2842
vt 0.7417 2.1182
vt 0.7417 1.8838
vt 0.9150 1.7178

vn 0.702 -0.004 0.702
vn 0.702 -0.004 0.702
vn 0.702 -0.004 0.702
vn 0.702 -0.004 0.702
vn 1.000 -0.004 -0.004
vn 1.000 -0.004 -0.004
vn 1.000 -0.004 -0.004
vn 1.000 -0.004 -0.004
vn 0.702 -0.004 -0.710
vn 0.702 -0.004 -0.710
vn 0.702 -0.004 -0.710
vn 0.702 -0.004 -0.710
vn -0.004 -0.004 -1.000
vn -0.004 -0.004 -1.000
vn -0.004 -0.004 -1.000
vn -0.004 -0.004 -1.000
vn -0.976 -0.161 0.176
vn -0.976 -0.161 0.176
vn -0.976 -0.161 0.176
vn -0.976 -0.161 0.176
vn 0.169 0.027 0.976
vn 0.169 0.027 0.976
vn 0.169 0.027 0.976
vn 0.169 0.027 0.976
vn 0.969 0.153 -0.184
vn 0.969 0.153 -0.184
vn 0.969 0.153 -0.184
vn 0.969 0.153 -0.184
vn -0.176 -0.035 -0.984
vn -0.176 -0.035 -0.984
vn -0.176 -0.035 -0.984
vn -0.176 -0.035 -0.984
vn -0.161 0.984 -0.004
vn -0.161 0.984 -0.004
vn -0.161 0.984 -0.004
vn -0.161 0.984 -0.004
vn 0.153 -0.992 -0.004
vn 0.153 -0.992 -0.004
vn 0.153 -0.992 -0.004
vn 0.153 -0.992 -0.004
vn -0.710 -0.004 -0.710
vn -0.710 -0.004 -0.710
vn -0.710 -0.004 -0.710
vn -0.710 -0.004 -0.710
vn -0.851 -0.035 -0.537
vn -0.851 -0.035 -0.537
vn -0.851 -0.035 -0.537
vn -0.851 -0.035 -0.537
vn -0.875 -0.004 -0.506
vn -0.875 -0.004 -0.506
vn -0.875 -0.004 -0.506
vn -0.875 -0.004 -0.506
vn -0.004 1.000 -0.004
vn -0.004 1.000 -0.004
vn -0.004 1.000 -0.004
vn -0.004 1.000 -0.004
vn 0.529 0.004 -0.851
vn 0.529 0.004 -0.851
vn 0.529 0.004 -0.851
vn 0.529 0.004 -0.851
vn -0.537 -0.012 0.843
vn -0.537 -0.012 0.843
vn -0.537 -0.012 0.843
vn -0.537 -0.012 0.843
vn -1.000 -0.004 -0.004
vn -1.000 -0.004 -0.004
vn -1.000 -0.004 -0.004
vn -1.000 -0.004 -0.004
vn 0.843 0.027 0.529
vn 0.843 0.027 0.529
vn 0.843 0.027 0.529
vn 0.843 0.027 0.529
vn 0.867 -0.004 0.498
vn 0.867 -0.004 0.498
vn 0.867 -0.004 0.498
vn 0.867 -0.004 0.498
vn -0.004 1.000 -0.004
vn -0.004 1.000 -0.004
vn -0.004 1.000 -0.004
vn -0.004 1.000 -0.004
vn 0.529 0.004 -0.851
vn 0.529 0.004 -0.851
vn 0.529 0.004 -0.851
vn 0.529 0.004 -0.851
vn -0.537 -0.012 0.843
vn -0.537 -0.012 0.843
vn -0.537 -0.012 0.843
vn -0.537 -0.012 0.843
vn -0.710 -0.004 0.702
vn -0.710 -0.004 0.702
vn -0.710 -0.004 0.702
vn -0.710 -0.004 0.702
vn -0.004 -0.004 1.000
vn -0.004 -0.004 1.000
vn -0.004 -0.004 1.000
vn -0.004 -0.004 1.000
vn -0.537 -0.012 0.843
vn -0.537 -0.012 0.843
vn -0.537 -0.012 0.843
vn -0.537 -0.012 0.843
vn -0.537 -0.012 0.843
vn -0.537 -0.012 0.843
vn -0.027 0.992 -0.012
vn -0.027 0.992 -0.012
vn -0.027 0.992 -0.012
vn -0.027 0.992 -0.012
vn -0.027 0.992 -0.012
vn -0.027 0.992 -0.012
vn 0.529 0.004 -0.851
vn 0.529 0.004 -0.851
vn 0.529 0.004 -0.851
vn 0.529 0.004 -0.851
vn 0.529 0.004 -0.851
vn 0.529 0.004 -0.851
vn 0.937 -0.004 0.325
vn 0.937 -0.004 0.325
vn 0.937 -0.004 0.325
vn 0.937 -0.004 0.325
vn 0.937 -0.004 0.325
vn 0.937 -0.004 0.325
vn 0.325 -0.004 -0.945
vn 0.325 -0.004 -0.945
vn 0.325 -0.004 -0.945
vn 0.325 -0.004 -0.945
vn 0.325 -0.004 -0.945
vn 0.325 -0.004 -0.945
vn -0.945 -0.004 -0.333
vn -0.945 -0.004 -0.333
vn -0.945 -0.004 -0.333
vn -0.945 -0.004 -0.333
vn -0.945 -0.004 -0.333
vn -0.945 -0.004 -0.333
vn -0.333 -0.004 0.937
vn -0.333 -0.004 0.937
vn -0.333 -0.004 0.937
vn -0.333 -0.004 0.937
vn -0.333 -0.004 0.937
vn -0.333 -0.004 0.937
vn 0.020 -1.000 0.004
vn 0.020 -1.000 0.004
vn 0.020 -1.000 0.004
vn 0.020 -1.000 0.004
vn 0.020 -1.000 0.004
vn 0.020 -1.000 0.004
vn -0.004 1.000 -0.004
vn -0.004 1.000 -0.004
vn -0.004 1.000 -0.004
vn -0.004 1.000 -0.004
vn -0.004 1.000 -0.004
vn -0.004 1.000 -0.004
vn -0.004 1.000 -0.004
vn -0.004 1.000 -0.004
vn -0.004 -1.000 -0.004
vn -0.004 -1.000 -0.004
vn -0.004 -1.000 -0.004
vn -0.004 -1.000 -0.004
vn -0.004 -1.000 -0.004
vn -0.004 -1.000 -0.004
vn -0.004 -1.000 -0.004
vn -0.004 -1.000 -0.004
vn -0.004 1.000 -0.004
vn -0.004 1.000 -0.004
vn -0.004 1.000 -0.004
vn -0.004 1.000 -0.004
vn -0.004 1.000 -0.004
vn -0.004 1.000 -0.004
vn -0.004 1.000 -0.004
vn -0.004 1.000 -0.004
vn -0.004 -1.000 -0.004
vn -0.004 -1.000 -0.004
vn -0.004 -1.000 -0.004
vn -0.004 -1.000 -0.004
vn -0.004 -1.000 -0.004
vn -0.004 -1.000 -0.004
vn -0.004 -1.000 -0.004
vn -0.004 -1.000 -0.004

usemtl /Engine/EngineMaterials/WorldGridMaterial_WorldGridMaterial
f 103/103/103 104/104/104 105/105/105 
f 4/4/4 1/1/1 3/3/3 
f 5/5/5 6/6/6 7/7/7 
f 8/8/8 5/5/5 7/7/7 
f 9/9/9 10/10/10 11/11/11 
f 12/12/12 9/9/9 11/11/11 
f 13/13/13 14/14/14 15/15/15 
f 16/16/16 13/13/13 15/15/15 
f 17/17/17 18/18/18 19/19/19 
f 20/20/20 17/17/17 19/19/19 
f 21/21/21 22/22/22 23/23/23 
f 24/24/24 21/21/21 23/23/23 
f 25/25/25 26/26/26 27/27/27 
f 28/28/28 25/25/25 27/27/27 
f 29/29/29 30/30/30 31/31/31 
f 32/32/32 29/29/29 31/31/31 
f 33/33/33 34/34/34 35/35/35 
f 36/36/36 33/33/33 35/35/35 
f 37/37/37 38/38/38 39/39/39 
f 40/40/40 37/37/37 39/39/39 
f 41/41/41 42/42/42 43/43/43 
f 44/44/44 41/41/41 43/43/43 
f 45/45/45 46/46/46 47/47/47 
f 48/48/48 45/45/45 47/47/47 
f 49/49/49 50/50/50 51/51/51 
f 52/52/52 49/49/49 51/51/51 
f 53/53/53 54/54/54 55/55/55 
f 56/56/56 53/53/53 55/55/55 
f 57/57/57 58/58/58 59/59/59 
f 60/60/60 57/57/57 59/59/59 
f 61/61/61 62/62/62 63/63/63 
f 64/64/64 61/61/61 63/63/63 
f 65/65/65 66/66/66 67/67/67 
f 68/68/68 65/65/65 67/67/67 
f 69/69/69 70/70/70 71/71/71 
f 72/72/72 69/69/69 71/71/71 
f 73/73/73 74/74/74 75/75/75 
f 76/76/76 73/73/73 75/75/75 
f 77/77/77 78/78/78 79/79/79 
f 80/80/80 77/77/77 79/79/79 
f 81/81/81 82/82/82 83/83/83 
f 84/84/84 81/81/81 83/83/83 
f 85/85/85 86/86/86 87/87/87 
f 88/88/88 85/85/85 87/87/87 
f 89/89/89 90/90/90 91/91/91 
f 92/92/92 89/89/89 91/91/91 
f 93/93/93 94/94/94 95/95/95 
f 96/96/96 93/93/93 95/95/95 
f 97/97/97 98/98/98 99/99/99 
f 100/100/100 97/97/97 99/99/99 
f 100/100/100 99/99/99 101/101/101 
f 102/102/102 100/100/100 101/101/101 
f 1/1/1 2/2/2 3/3/3 
f 106/106/106 103/103/103 105/105/105 
f 106/106/106 105/105/105 107/107/107 
f 108/108/108 106/106/106 107/107/107 
f 109/109/109 110/110/110 111/111/111 
f 112/112/112 109/109/109 111/111/111 
f 112/112/112 111/111/111 113/113/113 
f 114/114/114 112/112/112 113/113/113 
f 115/115/115 116/116/116 117/117/117 
f 116/116/116 118/118/118 117/117/117 
f 118/118/118 119/119/119 117/117/117 
f 119/119/119 120/120/120 117/117/117 
f 121/121/121 122/122/122 123/123/123 
f 124/124/124 121/121/121 123/123/123 
f 125/125/125 124/124/124 123/123/123 
f 126/126/126 125/125/125 123/123/123 
f 127/127/127 128/128/128 129/129/129 
f 130/130/130 127/127/127 129/129/129 
f 131/131/131 130/130/130 129/129/129 
f 132/132/132 131/131/131 129/129/129 
f 133/133/133 134/134/134 135/135/135 
f 134/134/134 136/136/136 135/135/135 
f 136/136/136 137/137/137 135/135/135 
f 137/137/137 138/138/138 135/135/135 
f 139/139/139 140/140/140 141/141/141 
f 142/142/142 139/139/139 141/141/141 
f 143/143/143 142/142/142 141/141/141 
f 144/144/144 143/143/143 141/141/141 
f 145/145/145 146/146/146 147/147/147 
f 145/145/145 147/147/147 148/148/148 
f 149/149/149 145/145/145 148/148/148 
f 147/147/147 150/150/150 148/148/148 
f 150/150/150 151/151/151 148/148/148 
f 151/151/151 152/152/152 148/148/148 
f 153/153/153 154/154/154 155/155/155 
f 153/153/153 155/155/155 156/156/156 
f 155/155/155 157/157/157 156/156/156 
f 158/158/158 153/153/153 156/156/156 
f 159/159/159 158/158/158 156/156/156 
f 160/160/160 159/159/159 156/156/156 
f 161/161/161 162/162/162 163/163/163 
f 164/164/164 161/161/161 163/163/163 
f 165/165/165 164/164/164 163/163/163 
f 166/166/166 165/165/165 163/163/163 
f 167/167/167 166/166/166 163/163/163 
f 168/168/168 167/167/167 163/163/163 
f 169/169/169 170/170/170 171/171/171 
f 172/172/172 169/169/169 171/171/171 
f 173/173/173 172/172/172 171/171/171 
f 174/174/174 173/173/173 171/171/171 
f 175/175/175 174/174/174 171/171/171 
f 176/176/176 175/175/175 171/171/171 

# dElaernU yb detareneG eliF JBO
